<svg width="258" height="72" viewBox="0 0 258 72" fill="none" xmlns="http://www.w3.org/2000/svg">
<path fill-rule="evenodd" clip-rule="evenodd" d="M32.0478 0L0 32.0478L16.0239 40.0597L32.0478 0Z" fill="#FFC738"/>
<path fill-rule="evenodd" clip-rule="evenodd" d="M8.31585 72L40.3636 39.9523L24.3397 31.9403L8.31585 72Z" fill="#FFC738"/>
<path d="M66.6205 32.0216V60.7598H56.5046V11.7497H66.2145V14.8775C67.1628 13.8182 71.8669 10.5222 78.6513 10.3887C91.3432 10.3887 99.8776 19.7337 99.8776 29.9734V60.7598H89.7617V31.1078C89.7617 27.5996 88.7806 24.8581 86.8183 22.8834C84.8561 20.8877 82.1608 19.8898 78.7324 19.8898C76.3867 19.8898 74.3004 20.3625 72.4735 21.3079C70.6691 22.2532 69.2368 23.6397 68.1768 25.4673C67.1392 27.274 66.6205 29.4587 66.6205 32.0216Z" fill="black"/>
<path d="M205.423 24.6906L196.254 24.7113C195.871 23.6189 195.262 22.579 194.427 21.5917C193.615 20.6043 192.51 19.7955 191.112 19.1653C189.713 18.5351 187.965 18.22 185.868 18.22C183.003 18.22 180.613 18.8187 178.695 20.0161C176.778 21.1925 175.82 22.7156 175.82 24.5852C175.82 26.2028 176.462 27.5052 177.748 28.4926C179.034 29.4799 181.109 30.2887 183.973 30.9189L192.228 32.6835C197.01 33.7129 200.573 35.299 202.919 37.4417C205.265 39.5844 206.438 42.3679 206.438 45.7921C206.438 48.6911 205.536 51.275 203.731 53.5438C201.949 55.7916 199.457 57.5562 196.254 58.8377C193.074 60.1191 189.386 60.7598 185.191 60.7598C179.372 60.7598 174.624 59.6044 170.948 57.2936C167.271 54.9618 165.301 50.3195 165.301 46.0328L173.959 45.9812C174.568 48.355 175.82 50.1511 177.714 51.3696C179.609 52.567 182.079 53.1657 185.123 53.1657C188.439 53.1657 191.089 52.525 193.074 51.2435C195.059 49.9411 196.051 48.355 196.051 46.4854C196.051 44.9728 195.442 43.7019 194.224 42.6725C193.029 41.6432 191.191 40.8659 188.71 40.3407L179.913 38.5446C175.064 37.5152 171.478 35.8767 169.155 33.6289C166.854 31.3811 165.704 28.5346 165.704 25.0894C165.704 22.2324 166.561 19.7325 168.275 17.5898C169.989 15.447 172.357 13.7769 175.38 12.5795C178.402 11.3611 181.864 10.7519 185.766 10.7519C191.382 10.7519 195.803 11.8863 199.028 14.1551C202.254 16.4029 205.423 20.9049 205.423 24.6907V24.6906Z" fill="black"/>
<path d="M256.485 24.6906L247.317 24.7113C246.933 23.6189 246.324 22.579 245.49 21.5917C244.678 20.6043 243.573 19.7955 242.174 19.1653C240.776 18.5351 239.028 18.22 236.93 18.22C234.066 18.22 231.675 18.8187 229.758 20.0161C227.841 21.1925 226.882 22.7156 226.882 24.5852C226.882 26.2028 227.525 27.5052 228.81 28.4926C230.096 29.4799 232.171 30.2887 235.036 30.9189L243.291 32.6835C248.072 33.7129 251.636 35.299 253.982 37.4417C256.327 39.5844 257.5 42.3679 257.5 45.7921C257.5 48.6911 256.598 51.275 254.794 53.5438C253.012 55.7916 250.519 57.5562 247.317 58.8377C244.136 60.1191 240.449 60.7598 236.253 60.7598C230.434 60.7598 225.687 59.6044 222.01 57.2936C218.334 54.9618 216.363 50.4689 216.363 46.0328L225.021 45.9812C225.63 48.355 226.882 50.1511 228.777 51.3696C230.671 52.567 233.141 53.1657 236.186 53.1657C239.501 53.1657 242.152 52.525 244.136 51.2435C246.121 49.9411 247.114 48.355 247.114 46.4854C247.114 44.9728 246.505 43.7019 245.287 42.6725C244.091 41.6432 242.253 40.8659 239.772 40.3407L230.976 38.5446C226.126 37.5152 222.54 35.8767 220.217 33.6289C217.917 31.3811 216.766 28.5346 216.766 25.0894C216.766 22.2324 217.623 19.7325 219.337 17.5898C221.052 15.447 223.42 13.7769 226.442 12.5795C229.465 11.3611 232.927 10.7519 236.829 10.7519C242.445 10.7519 246.866 11.8863 250.091 14.1551C253.316 16.4029 256.485 20.8941 256.485 24.6907V24.6906Z" fill="black"/>
<path d="M134.027 60.76C128.997 60.76 124.667 59.6992 121.036 57.5774C117.427 55.4346 114.653 52.4831 112.713 48.7228C110.773 44.9625 109.803 40.6559 109.803 35.8032C109.803 30.8875 110.796 26.5495 112.78 22.7891C114.765 19.0078 117.562 16.0563 121.171 13.9345C124.78 11.8128 129.031 10.7519 133.926 10.7519C137.873 10.7519 141.391 11.4346 144.481 12.8001C147.571 14.1446 150.064 16.0353 151.958 18.4721C153.875 20.909 155.014 23.7555 155.375 27.0116H145.53C144.989 24.7428 143.748 22.7891 141.809 21.1506C139.891 19.512 137.32 18.6927 134.095 18.6927C131.275 18.6927 128.806 19.3859 126.686 20.7724C124.588 22.1379 122.953 24.0916 121.78 26.6335C120.607 29.1544 120.021 32.1374 120.021 35.5826C120.021 39.1119 120.596 42.158 121.746 44.7209C122.896 47.2838 124.52 49.269 126.618 50.6765C128.738 52.084 131.23 52.7877 134.095 52.7877C136.012 52.7877 137.749 52.4621 139.305 51.8109C140.884 51.1386 142.203 50.1828 143.263 48.9434C144.346 47.7039 145.102 46.2124 145.53 44.4688H155.375C155.014 47.5989 153.92 50.3929 152.094 52.8507C150.267 55.3086 147.819 57.2413 144.752 58.6488C141.707 60.0563 138.132 60.76 134.027 60.76Z" fill="black"/>
<path fill-rule="evenodd" clip-rule="evenodd" d="M152.869 31.6636V39.8482L124.925 35.7559L152.869 31.6636Z" fill="#FFC738"/>
</svg>
